# xmcd CD Database Entry
#
# Track frame offsets:
# 150
# 13080
# 35552
# 48461
# 62965
# 75828
# 91108
# 106986
# 121664
# 136253
# 150599
# 164167
# 176262
# 191503
# 204834
# 220719
# 234162
# 247846
# 262222
# 275629
#
# Disc length: 3952 seconds
#
# Revision: 2
# Processed by: cddbd v1.4b41PL1 Copyright (c) Steve Scherf et al.
# Submitted via: tcd 2.0b
#
DISCID=050f6e14
DTITLE=Glenn Miller and his band - Miller makes it happen
DYEAR=1900
DGENRE=
TTITLE0=Little Brown Jug
TTITLE1=The Anvil Chorus (parts 1&2)
TTITLE2=Blueberry Hill
TTITLE3=Sliphorn Drive
TTITLE4=Johnson Rag
TTITLE5=Perfidia
TTITLE6=King Porter Stomp
TTITLE7=My Blue Heaven
TTITLE8=Slow Freight
TTITLE9=Moments in the Moonlight
TTITLE10=Sun Valley Jump
TTITLE11=Caribbean Clipper
TTITLE12=It's a Blue World
TTITLE13=Bugle Call Rag
TTITLE14=Blue Moonlight
TTITLE15=Everything I Love
TTITLE16=Glen Island Special
TTITLE17=When Johny Comes Marching Home
TTITLE18=Happy in Love
TTITLE19=Blues In The Night
EXTD=
EXTT0=Winner-arr. Finegan
EXTT1=Verdi-arr. Gray
EXTT2=Lewis-Rose-Stock
EXTT3=Durham
EXTT4=Lawrence-Hall-Kleinkauf
EXTT5=Dominguez
EXTT6=Morton
EXTT7=Whiting-Donaldson
EXTT8=Ram-Mills-Fien
EXTT9=Himber Gordon-Kaufman
EXTT10=Gray
EXTT11=Gray-Gallop
EXTT12=Wright-Forrest
EXTT13=Schoebel-Pettis-Meyers
EXTT14=Suesse
EXTT15=Porter
EXTT16=Durham
EXTT17=Glenmore-arr.Dickinson-Conway-Finegan
EXTT18=Yellen-Fain
EXTT19=Mercer-Arlen
PLAYORDER=
